<?xml version="1.0" encoding="UTF-8" standalone="no"?>
<!-- Created with Inkscape (http://www.inkscape.org/) -->

<svg
   width="512"
   height="128"
   viewBox="0 0 135.46666 33.866667"
   version="1.1"
   id="svg5"
   inkscape:version="1.2.1 (9c6d41e410, 2022-07-14)"
   sodipodi:docname="logo_outline.svg"
   xmlns:inkscape="http://www.inkscape.org/namespaces/inkscape"
   xmlns:sodipodi="http://sodipodi.sourceforge.net/DTD/sodipodi-0.dtd"
   xmlns="http://www.w3.org/2000/svg"
   xmlns:svg="http://www.w3.org/2000/svg">
  <sodipodi:namedview
     id="namedview7"
     pagecolor="#505050"
     bordercolor="#ffffff"
     borderopacity="1"
     inkscape:showpageshadow="0"
     inkscape:pageopacity="0"
     inkscape:pagecheckerboard="1"
     inkscape:deskcolor="#505050"
     inkscape:document-units="mm"
     showgrid="false"
     inkscape:zoom="0.914906"
     inkscape:cx="315.33294"
     inkscape:cy="392.39004"
     inkscape:window-width="3440"
     inkscape:window-height="1365"
     inkscape:window-x="0"
     inkscape:window-y="0"
     inkscape:window-maximized="1"
     inkscape:current-layer="layer1" />
  <defs
     id="defs2">
    <rect
       x="91.526649"
       y="45.569061"
       width="788.61414"
       height="200.93423"
       id="rect2526" />
    <rect
       x="6.6263638"
       y="7.0447812"
       width="780.58734"
       height="183.88161"
       id="rect2508" />
  </defs>
  <g
     inkscape:label="Layer 1"
     inkscape:groupmode="layer"
     id="layer1">
    <g
       aria-label="MckAudio"
       transform="matrix(0.26458333,0,0,0.26458333,-12.617288,-9.6436281)"
       id="text2524"
       style="font-size:120px;line-height:1.25;font-family:Praise;-inkscape-font-specification:Praise;white-space:pre;shape-inside:url(#rect2526);display:inline;fill:#2a2a2a;fill-opacity:1">
      <path
         d="m 137.72734,132.72836 q -1.56,2.88 -5.28,2.88 -3.6,0 -4.8,-0.96 -1.08,-1.08 -1.08,-5.4 0,-4.44 4.68,-20.4 4.68,-16.080001 4.68,-18.480001 0,-2.52 -0.96,-2.52 -1.44,0 -3.6,2.52 -2.16,2.4 -3.6,4.8 l -1.44,2.52 q -7.68,12.480001 -14.04,25.080001 -6.24,12.48 -9.24,18.36 -2.88,5.76 -5.039996,7.32 -2.16,1.56 -6.24,1.56 -3.96,0 -3.96,-1.8 v -0.36 q 0,-1.2 6.24,-11.16 23.039996,-36.6 34.679996,-59.760001 2.76,-5.52 2.76,-10.32 v -1.44 q 0,-2.16 4.92,-3.48 5.04,-1.32 8.28,-1.32 h 3.96 q 5.04,0 7.44,1.92 1.08,0.72 1.08,1.92 0,1.2 -4.8,16.68 -4.68,15.36 -4.68,18.48 0,3.120001 0.96,3.120001 3,0 10.56,-7.320001 7.56,-7.44 17.28,-17.76 7.92,-8.64 15.12,-14.88 1.56,-1.44 3.72,-1.68 4.68,-0.72 9.96,-0.72 5.4,0 5.4,2.4 0,0.48 -0.12,0.72 0,0.24 -4.44,7.32 -4.44,6.96 -10.8,17.4 -6.36,10.32 -12.72,21.480001 -6.36,11.04 -10.8,21.12 -4.44,9.96 -4.44,14.64 -1.08,2.04 -3.36,2.04 -11.88,0 -11.88,-4.2 0,-9.72 24.12,-46.680001 3.12,-4.68 3.12,-5.88 0,-1.2 -1.8,-1.2 -4.56,0 -19.2,16.320001 -14.64,16.2 -20.64,27.12 z"
         style="font-family:Condiment;-inkscape-font-specification:Condiment;fill:#2a2a2a;fill-opacity:1"
         id="path1885" />
      <path
         d="m 212.72737,101.76836 2.04,0.12 q 2.04,0 3.24,-2.040001 0.96,-2.64 7.08,-2.52 6.12,0 6.12,2.52 0,0.360001 -2.76,3.120001 -2.76,2.76 -6.72,7.92 -3.96,5.04 -6.12,10.2 -0.24,0.72 -1.92,0.72 -1.56,0 -2.52,-1.44 -0.96,-1.56 -0.96,-3.24 0,-1.8 0.36,-3.12 0.48,-1.32 0.48,-1.92 0,-2.28 -2.52,-2.28 -6.96,0 -12.36,8.04 -5.4,7.92 -5.4,14.52 0,8.76 8.52,8.76 5.16,0 9,-2.4 0.84,-0.72 1.68,-0.72 1.32,0 1.32,1.32 0,3.12 -5.64,7.2 -5.64,4.2 -13.56,4.2 -7.8,0 -10.8,-3.96 -2.88,-3.84 -2.88,-8.52 0,-4.8 2.52,-10.8 2.64,-6 6.84,-11.76 4.32,-5.88 11.04,-9.84 6.72,-4.08 13.92,-4.08 z"
         style="font-family:Condiment;-inkscape-font-specification:Condiment;fill:#2a2a2a;fill-opacity:1"
         id="path1887" />
      <path
         d="m 261.92739,160.20836 q 0,0.72 -1.2,0.96 -5.52,0 -9.84,-11.64 -4.32,-11.64 -4.32,-20.28 0,-1.32 1.32,-1.68 4.92,-1.68 11.4,-6.36 6.6,-4.68 6.6,-9.84 0,-1.68 -1.68,-1.68 -7.44,0 -20.76,13.08 -13.2,12.96 -18.72,23.28 -0.48,1.08 -1.92,1.08 -1.32,0 -3.12,-2.4 -1.68,-2.4 -1.68,-4.92 0,-2.52 0.84,-4.32 12.12,-24.48 22.8,-42.240001 10.8,-17.76 18.6,-28.2 7.8,-10.56 16.32,-17.88 8.52,-7.44 15,-7.44 5.64,0 5.64,6.72 0,8.88 -6.36,19.44 -6.36,10.44 -14.04,17.52 -10.92,10.2 -16.92,10.2 -2.28,0 -2.28,-1.2 l 0.72,-1.08 q 11.76,-8.16 18.6,-18.84 6.96,-10.68 6.96,-15 0,-2.52 -2.04,-2.52 -4.32,0 -13.8,12.84 -9.36,12.84 -16.8,26.64 -7.32,13.800001 -7.32,17.040001 0,1.56 1.44,1.56 1.08,0 2.52,-1.32 1.56,-1.32 4.32,-3.36 2.76,-2.16 10.08,-5.64 7.32,-3.480001 13.08,-3.480001 5.88,0 5.88,5.520001 0,4.56 -3.48,8.76 -3.48,4.2 -7.68,6.72 -4.2,2.52 -7.8,5.16 -3.6,2.52 -3.72,4.2 -0.24,3.36 -0.24,6.12 0,2.76 0.36,6.72 0.36,3.84 0.84,6.84 0.96,4.68 2.04,9.48 z"
         style="font-family:Condiment;-inkscape-font-specification:Condiment;fill:#2a2a2a;fill-opacity:1"
         id="path1889" />
      <path
         d="m 282.44748,115.32836 q -0.84,0 -1.08,-1.08 0,-2.04 2.88,-4.68 2.88,-2.64 4.56,-3.36 1.8,-0.72 11.64,-0.96 l 1.68,-1.92 q 36.48,-42.120001 50.64,-42.120001 1.2,-0.12 2.76,-0.12 8.28,0 8.28,3.96 0,0.72 -1.56,3.84 l -5.4,10.8 q -3.84,7.68 -7.44,15.6 -19.44,42.840001 -22.56,56.160001 0,0.96 -2.52,0.96 -2.4,0 -5.88,-2.76 -3.48,-2.64 -3.48,-4.68 0,-3.72 5.88,-14.04 5.88,-10.32 5.88,-13.44 0,-4.2 -16.32,-4.2 -2.4,0 -7.44,0.24 l -4.56,6 q -8.4,11.28 -16.08,27.96 -1.32,3 -8.04,3 -6.72,0 -6.72,-1.92 0,-1.32 7.44,-11.52 7.56,-10.32 17.88,-22.8 -1.8,0.24 -4.56,0.48 -2.76,0.24 -4.32,0.48 -1.44,0.12 -1.56,0.12 z m 49.8,-15.480001 q 4.68,-5.64 6.96,-11.4 2.4,-5.76 2.4,-7.8 0,-2.04 -2.04,-2.04 -3.6,0 -11.88,7.68 -8.28,7.56 -18,18.960001 l 13.08,0.24 q 4.8,0 9.48,-5.640001 z"
         style="font-family:Condiment;-inkscape-font-specification:Condiment;fill:#2a2a2a;fill-opacity:1"
         id="path1891" />
      <path
         d="m 374.48754,134.76836 q 0,-0.84 -0.6,-0.84 h -0.24 l -1.8,0.84 q -7.8,7.56 -12.72,10.44 -4.92,2.76 -10.2,2.76 -2.4,0 -4.32,-1.44 -1.92,-1.44 -1.92,-5.52 0,-4.08 4.2,-14.4 4.2,-10.32 10.44,-19.68 6.24,-9.480001 10.92,-10.680001 1.56,-0.48 4.2,-0.48 2.64,0 2.64,1.44 0,0.48 -4.32,6.720001 -4.32,6.12 -8.64,14.04 -4.2,7.92 -4.2,11.88 0,3.96 2.76,3.96 5.16,0 11.88,-6.72 6.72,-6.72 17.64,-21.24 3,-4.32 9.6,-4.32 3.6,0 3.6,1.44 0,0.36 -0.36,0.96 -18.84,29.04 -22.68,41.64 -0.48,1.44 -1.2,1.44 h -0.36 q -4.8,0 -4.8,-7.68 z"
         style="font-family:Condiment;-inkscape-font-specification:Condiment;fill:#2a2a2a;fill-opacity:1"
         id="path1893" />
      <path
         d="m 419.60754,131.28836 q 6.36,-5.64 11.16,-11.88 4.8,-6.36 4.8,-7.92 0,-1.68 -1.44,-2.76 -1.44,-1.08 -4.44,-1.08 -6.96,0 -14.64,9.48 -7.68,9.48 -7.68,16.2 0,3.6 2.52,3.6 3.36,0 9.72,-5.64 z m 6.84,17.4 h -0.24 q -5.76,0 -5.76,-6.48 l 0.24,-2.4 -0.84,-1.2 q -0.72,0 -1.8,0.84 -10.32,9.96 -18.12,9.96 -2.4,0 -4.44,-1.92 -1.92,-1.8 -1.92,-6.36 0,-9.12 7.92,-21 12.48,-18.84 31.44,-18.84 2.64,0 4.8,0.84 2.28,0.72 2.76,0.72 0.6,0 2.04,-1.8 1.44,-1.920001 9.24,-15.240001 18.12,-30.84 21.24,-37.2 2.64,-5.28 13.32,-5.28 3.24,0 3.24,1.92 0,0.72 -5.16,7.44 -5.04,6.72 -14.52,20.52 -9.36,13.8 -17.4,28.320001 -20.76,33.12 -24.72,45.72 -0.48,1.44 -1.32,1.44 z"
         style="font-family:Condiment;-inkscape-font-specification:Condiment;fill:#2a2a2a;fill-opacity:1"
         id="path1895" />
      <path
         d="m 446.12749,151.68836 q -1.68,0 -3.72,-2.16 -2.04,-2.04 -2.04,-5.04 0,-1.68 7.8,-16.92 7.92,-15.36 8.16,-20.76 0,-1.68 2.16,-3.12 3.84,-2.28 11.4,-2.28 1.44,0 3,0.6 1.68,0.48 1.68,1.44 0,0.48 -0.36,0.84 -4.56,5.76 -13.32,20.76 -8.76,15 -13.2,24.36 -0.6,2.28 -1.56,2.28 z m 26.28,-57.000001 q -5.28,0 -5.52,-4.2 v -0.12 q 0,-3.6 3.48,-5.88 3.6,-2.28 7.08,-2.28 5.28,0 5.52,4.2 0,3.6 -3.48,6 -3.48,2.28 -7.08,2.28 z"
         style="font-family:Condiment;-inkscape-font-specification:Condiment;fill:#2a2a2a;fill-opacity:1"
         id="path1897" />
      <path
         d="m 470.00744,147.12836 q -2.76,-1.32 -4.56,-4.68 -1.68,-3.36 -1.68,-8.28 0,-7.68 4.92,-16.08 5.04,-8.4 14.04,-14.4 9.12,-6.000001 19.2,-6.000001 4.68,0 7.8,2.520001 3.12,2.52 3.12,5.04 0,2.4 -0.72,3.84 -0.72,1.44 -0.72,1.92 0,1.44 2.28,1.44 2.28,0 3.48,-0.6 1.2,-0.6 1.44,-0.6 0.96,0 0.96,2.52 0,2.4 -2.4,5.76 -2.4,3.24 -5.88,4.8 -0.48,0.96 -1.32,2.76 -0.84,1.68 -3.96,6 -3.12,4.2 -6.72,7.56 -3.48,3.24 -9.36,5.88 -5.76,2.76 -10.56,2.76 -4.8,0 -9.36,-2.16 z m 26.76,-20.64 q 0,-0.96 -1.08,-0.96 -1.56,0 -3.6,0.72 -1.92,0.72 -2.16,0.72 -0.72,0 -0.72,-1.08 0,-4.68 3.36,-8.04 1.32,-1.44 3.84,-2.4 2.52,-1.08 3.84,-2.4 1.44,-1.44 1.44,-4.8 0,-4.08 -4.32,-4.08 -7.68,0 -14.64,10.92 -6.96,10.8 -6.96,19.32 0,2.88 1.92,4.92 2.04,2.04 4.8,2.04 6.24,0 10.2,-5.16 4.08,-5.28 4.08,-9.72 z"
         style="font-family:Condiment;-inkscape-font-specification:Condiment;fill:#2a2a2a;fill-opacity:1"
         id="path1899" />
    </g>
  </g>
</svg>
